<svg xmlns="http://www.w3.org/2000/svg" role="img" viewBox="95.30 204.30 1024.40 226.40">
<path fill="#fbf9ed"
      d="M1022 224v37l.02 2.996c.07 1.566.11 3.228 1.01 4.586l1.29 1.344.83.545.91.489 1.94.926 2 1.018c1.75.967 3.38 2.094 5 3.255 1.38.985 2.72 2.038 4 3.141 1.7 1.467 3.32 3.034 4.83 4.704 1.42 1.579 2.74 3.255 3.96 4.996 1.13 1.604 2.16 3.272 3.09 5 1.36 2.55 2.49 5.246 3.37 8 .53 1.642.94 3.312 1.29 5 .27 1.321.4 2.666.59 4l.29 2c.15.997.32 1.994.41 3 .11 1.335.12 2.665 0 4-.13 1.346-.38 2.675-.63 4-.33 1.675-.68 3.346-1.1 5-.42 1.684-.9 3.355-1.46 5-.57 1.705-1.21 3.388-2.02 5-.69 1.377-1.47 2.714-2.32 4-.67 1.015-1.35 2.013-2.06 3l-.76 1-1.66 2c-1.24 1.36-2.5 2.685-3.82 3.961l-2 1.865-2 1.709-2 1.562c-1.27.977-2.61 1.895-4 2.704-2.21 1.291-4.6 2.264-7 3.144-1.97.724-3.97 1.347-6 1.899-.99.269-1.99.509-3 .691l-2 .294-2.96.206c-1.78.093-3.55.147-5.33.077l-2.75-.177-.97-.095c-1.68-.213-3.34-.497-4.99-.855-2.035-.44-4.036-.989-6-1.684-1.358-.481-2.683-1.03-4-1.613l-1-.473c-1.017-.477-2.024-.997-3-1.553-3.269-1.864-6.254-4.181-8.996-6.752-3.169-2.971-6.091-6.258-8.456-9.91-1.04-1.605-1.929-3.294-2.788-5l-1.448-3-.848-2c-.398-.977-.723-1.99-1.024-3-.393-1.317-.704-2.653-.976-4l-.168-1c-.224-1.323-.292-2.669-.451-4l-.545-4-.091-1v-2c.053-1.007.226-2.005.382-3l.67-4c.381-2.026.846-4.039 1.488-6 .794-2.421 1.865-4.728 3.011-7 .51-1.012 1.034-2.011 1.588-3l1.25-2 .703-1c.753-1.016 1.519-2.019 2.318-2.999 1.099-1.348 2.22-2.7 3.47-3.911l1.926-1.801c.979-.843 1.976-1.662 2.985-2.47.97-.775 1.969-1.528 3-2.221 1.906-1.282 3.951-2.318 5.998-3.35l3.842-1.899 1.001-.448.488-.241L992 269v-44c-1.05.009-2.11-.01-3.16.039-.953.045-1.901.122-2.845.261-2.723.4-5.38 1.206-7.995 2.044-2.362.757-4.719 1.552-7 2.529-1.356.58-2.678 1.231-4 1.883l-4 2c-1.689.859-3.371 1.726-5 2.697-1.017.606-2.018 1.242-3 1.903l-3 2.072c-1.359.975-2.685 1.988-4 3.022l-3 2.471c-1.996 1.662-4.019 3.301-5.83 5.169-1.507 1.552-2.866 3.249-4.249 4.91l-2.471 3c-1.282 1.632-2.536 3.284-3.704 5-1.108 1.628-2.134 3.309-3.142 5-1.172 1.966-2.31 3.952-3.334 6-1.14 2.281-2.128 4.63-3.066 7-.784 1.979-1.532 3.97-2.175 6-.524 1.651-.97 3.323-1.399 5-.425 1.66-.83 3.323-1.181 5l-.528 3c-.28 1.66-.589 3.323-.751 5-.193 1.994-.167 3.999-.17 6v6l.001 6c.008 1.668.003 3.338.17 5 .134 1.345.379 2.673.633 4l.796 4 .825 4c.464 2.02.976 4.024 1.604 6 .428 1.347.889 2.69 1.421 4l2.129 5c.866 2.024 1.707 4.055 2.744 6 1.482 2.778 3.265 5.384 5.01 8 1.59 2.384 3.155 4.795 4.993 7 1.162 1.395 2.42 2.703 3.689 4l2.985 2.999c1.641 1.636 3.277 3.28 5 4.83 1.295 1.166 2.64 2.275 4 3.363 1.307 1.046 2.628 2.077 4 3.037 1.933 1.353 3.965 2.568 6 3.759l3 1.703 3 1.55c1.643.821 3.297 1.616 5 2.306 2.29.928 4.655 1.678 7 2.452 1.66.549 3.322 1.084 5 1.574 1.323.386 2.663.72 4 1.052 1.653.411 3.312.831 5 1.075 1.991.287 4.002.269 6 .469l4 .546c1 .123 1.99.202 3 .246 1 .043 2 .04 3 .034 1.34-.007 2.67-.038 4-.165l5-.661c2-.2 4.01-.182 6-.469 2.03-.293 4.01-.833 6-1.327l4-1.003c1.34-.344 2.68-.693 4-1.116 1.69-.544 3.35-1.192 5-1.858 1.34-.543 2.69-1.092 4-1.705 2.03-.946 4.03-1.947 6-3 1.36-.723 2.68-1.51 4-2.295 2.72-1.621 5.44-3.279 8-5.153 1.72-1.262 3.36-2.631 5-3.998 1.35-1.121 2.7-2.235 4-3.415 1-.915 1.97-1.861 2.91-2.845 1.51-1.586 2.91-3.275 4.28-4.985 1.05-1.31 2.09-2.632 3.06-4 1.17-1.642 2.3-3.313 3.41-5 1.29-1.972 2.54-3.971 3.74-6 .96-1.635 1.9-3.279 2.71-5 .62-1.309 1.16-2.654 1.69-4 .77-1.982 1.53-3.97 2.17-6 .53-1.654.98-3.33 1.45-5 .47-1.662.95-3.317 1.34-5 .54-2.314.93-4.657 1.32-7 .27-1.661.59-3.323.75-5 .13-1.33.15-2.664.17-4v-8c-.01-1-.02-2.002-.09-3-.11-1.681-.4-3.334-.64-5-.24-1.667-.42-3.344-.73-5-.19-1.007-.43-2.005-.67-3-.49-2.01-1.01-4.01-1.58-6l-.88-3-.93-3c-.56-1.689-1.22-3.346-1.88-5-.54-1.346-1.1-2.688-1.72-4-.96-2.045-2.06-4.03-3.16-6-1.34-2.377-2.72-4.735-4.24-7-1.14-1.708-2.38-3.356-3.61-5-.76-1.012-1.53-2.023-2.33-3-2.31-2.797-4.85-5.404-7.54-7.829-1.61-1.453-3.3-2.816-5-4.167-1.64-1.304-3.29-2.594-5-3.796-1.63-1.142-3.32-2.191-5-3.255-1.97-1.251-3.94-2.529-6-3.63-2.26-1.204-4.63-2.166-7-3.122-1.99-.802-3.98-1.626-6-2.336-2.94-1.03-5.96-1.75-9-2.441l-2.84-.623L1022 224m-834 2v119c-.003 1.997.043 4.011-.174 6-.109 1.01-.278 2.01-.507 3-.233 1.013-.514 2.026-.881 3l-.865 2-.539 1-1.259 1.996-1.456 1.961-1.62 1.83-.873.823-1.865 1.42-1.965 1.134-.997.483-1.999.804-2 .622c-2.604.705-5.306.998-8 .833-1.692-.104-3.354-.406-5-.806-1.011-.245-2.007-.541-3-.85l-2-.725-2-.903-1-.526-1-.571-2-1.275c-2.085-1.395-4.058-2.944-5.998-4.531-1.278-1.045-2.509-2.146-3.842-3.123l-1.001-.604-.488-.338L134 357l-1.011 1.671-.247.488-.557 1.001-1.495 2.845-1.117 1.995-3.562 6-3.432 6-1.729 3-2.271 3.998c-.729 1.277-1.478 2.543-2.169 3.842l-.481 1.001-.256.488L115 391c1.332 1.305 2.636 2.646 4.045 3.871l1.96 1.669c.985.786 1.977 1.559 2.995 2.301 1.921 1.401 3.904 2.71 6 3.835 1.942 1.042 3.974 1.884 6 2.745 1.655.702 3.301 1.442 5 2.035.987.344 1.991.63 3 .903 1.326.358 2.662.683 4 .99 1.328.305 2.662.587 4 .846.996.193 1.994.385 3 .516.997.129 1.995.216 3 .25l5 .125c1.668.095 3.327.343 5 .343 1.339 0 2.668-.161 4-.274l2-.116c1.666-.068 3.336-.013 5-.129 1.682-.116 3.337-.393 5-.665 1.338-.218 2.68-.436 4-.748 1.694-.401 3.351-.945 5-1.501 1.342-.452 2.692-.904 4-1.449l2-.859 3-1.447c2.408-1.205 4.806-2.458 7-4.03 2.164-1.549 4.104-3.361 5.996-5.226 2.22-2.189 4.396-4.445 6.215-6.985 1.135-1.584 2.101-3.277 3.004-5 .854-1.629 1.641-3.295 2.332-5 .665-1.64 1.229-3.32 1.782-5 .653-1.981 1.278-3.973 1.773-6 .403-1.653.695-3.323.977-5 .28-1.66.589-3.324.751-5 .193-1.994.167-3.999.17-6V226h-44m86 0v109l.001 6c.008 1.669.008 3.337.169 5 .097 1.006.261 2.002.42 3l.491 3c.338 2.008.693 4.016 1.154 6 .391 1.683.865 3.344 1.355 5 .297 1.003.584 2.012.926 3 .942 2.724 1.997 5.423 3.293 8 1.226 2.436 2.69 4.73 4.195 7 1.606 2.422 3.245 4.82 5.18 6.996 1.202 1.351 2.494 2.604 3.82 3.83l.997.874c1.275 1.123 2.645 2.144 3.999 3.169 2.253 1.705 4.527 3.404 7 4.782 2.244 1.251 4.643 2.189 7 3.199l4 1.7c1.315.522 2.651.993 4 1.421 3.594 1.143 7.288 1.942 11 2.594 1.327.233 2.666.38 4 .565l2 .291c.998.149 1.994.313 3 .409 1.331.127 2.664.151 4 .167l3 .042 2 .127c1.665.172 3.321.417 5 .379 1.006-.023 2.001-.172 3-.274 1.001-.103 1.995-.188 3-.232 1.666-.073 3.335-.014 5-.129 2.015-.138 4.002-.502 6-.78l3-.402 4-.649c1.677-.283 3.347-.574 5-.977 2.027-.495 4.019-1.12 6-1.773 1.68-.553 3.36-1.118 5-1.782 1.703-.69 3.358-1.485 5-2.306 1.694-.847 3.373-1.723 5-2.694 1.714-1.022 3.381-2.128 5-3.293 1.36-.979 2.689-2.002 3.985-3.062.974-.796 1.939-1.607 2.844-2.481 1.817-1.755 3.4-3.731 4.96-5.712 1.522-1.933 3.004-3.895 4.284-5.999 1.176-1.932 2.172-3.973 3.171-6 .651-1.321 1.316-2.64 1.883-4l.42-1 .758-2 1.024-3c.538-1.651 1.037-3.308 1.435-5 .388-1.65.712-3.322.951-5l.567-5 .433-3 .195-2c.092-1.331.086-2.667.089-4l.001-6V226h-44v99l-.001 6c-.003 1.333.003 2.669-.089 4-.115 1.681-.401 3.334-.639 5s-.405 3.348-.735 5c-.479 2.403-1.223 4.76-2.217 7-.455 1.026-.953 2.03-1.518 3-.602 1.033-1.272 2.027-1.972 2.996-1.202 1.665-2.498 3.274-4.003 4.678-1.177 1.099-2.482 2.083-3.83 2.963L377 366.906l-1 .576-2 1c-1.613.732-3.306 1.286-5 1.797-1.642.494-3.31.952-5 1.256l-2 .291-2 .135c-1.667.035-3.333.046-5 .038-1.668-.007-3.338-.003-5-.17-1.344-.134-2.676-.372-4-.637-1.344-.269-2.689-.561-4-.966-1.724-.532-3.387-1.23-5-2.036-2.104-1.052-4.14-2.271-5.996-3.719-2.373-1.851-4.462-4.025-6.215-6.472-1.123-1.568-2.081-3.248-2.888-4.999-.89-1.932-1.569-3.965-2.18-6-.686-2.289-1.292-4.619-1.547-7-.179-1.66-.165-3.333-.173-5l-.001-6V226h-44m206 0v182h43l.522-2.159.189-1.001.199-1.865.05-.98L524 398v-77l-.004-4c-.012-1.327-.034-2.654-.165-3.975-.168-1.691-.521-3.357-.831-5.025l1.216 1.086.266.431.597.804.89 1.738.828 1.946L528.4 318l5.6 14 3.6 9 2.411 6 2.54 6 1.499 4 1.554 4 3.385 8 2.011 5 3.2 8 6.8 17c.663 1.654 1.29 3.331 2.055 4.941.554 1.166 1.265 2.305 2.363 3.031 1.058.7 2.358.899 3.597.969 1.659.094 3.325.058 4.985.059h18l.631-1.671.209-.488 1.56-3.846 2.024-4.995 2.127-5 1.499-4 1.154-3 1.646-4 1.701-4 1.898-5 1.271-3 1.677-4 2.803-7 4.4-11 2.003-5 1.677-4 1.271-3 1.873-5c.639-1.677 1.307-3.345 2-5l2.127-5 1.897-4.998 1.591-3.842.348-1.001.188-.488L632 308l.585 1.671.057.488.198 1.001c.133 1.277.142 2.56.157 3.842L633 321v87h44V226h-55l-.657 1.671-.233.488-.43 1.001-1.231 2.845L617.95 236l-1.554 4-1.676 4-1.271 3-1.499 4-1.554 4-1.676 4-1.271 3-1.898 5-1.701 4-1.247 3-2.803 7-5.6 14-8.8 22-2.824 7-1.725 3.995-1.218 2.845-.482 1.001-.209.488L578 334l-.631-1.671-.209-.488-1.584-3.846-2.127-4.995-1.499-4-1.154-3-1.646-4-1.701-4-1.499-4-1.554-4-3.793-9-3.603-9-6-15-2.4-6c-.803-2.006-1.606-4.011-2.45-6l-1.701-4-2.653-7-1.646-4-1.701-4c-.793-1.98-1.435-4.019-2.365-5.941-.57-1.179-1.361-2.311-2.478-3.031-.805-.52-1.714-.742-2.649-.88-.976-.144-1.975-.125-2.958-.143L524 226h-44m239 0v182h98l5-.001c1.668-.008 3.338-.003 5-.17 1.342-.134 2.68-.363 4-.637 1.004-.208 2.006-.417 3-.67 1.35-.345 2.677-.761 4-1.193 2.026-.661 4.059-1.344 6-2.229 1.727-.788 3.386-1.723 5-2.72 1.375-.849 2.754-1.725 4-2.759l1-.831c1.366-1.217 2.69-2.476 3.96-3.794 1.521-1.578 2.974-3.212 4.251-4.996 1.135-1.584 2.101-3.277 3.004-5 .853-1.626 1.652-3.289 2.321-5 .512-1.308.939-2.645 1.305-4 .267-.99.508-1.991.695-3l.305-2 .314-3 .269-2c.192-1.329.414-2.654.447-4l-.055-2-.105-1-.556-4-.314-3c-.172-1.351-.42-2.683-.765-4-.447-1.702-1.046-3.364-1.692-5-.399-1.012-.827-2.008-1.274-3l-.483-1-1.091-2-.605-1c-.639-1.013-1.285-2.02-1.974-3-.725-1.031-1.489-2.021-2.283-2.999l-1.767-1.986-1.922-1.922c-1.84-1.734-3.819-3.304-5.985-4.614-1.593-.963-3.28-1.749-4.998-2.46-1.26-.522-2.54-1.003-3.842-1.409l-1.001-.242-.488-.143L838 315l1.671-1.011.488-.247 1.001-.554 1.865-.951 3.975-2.033 2-1.17 2-1.424 1-.823c1.023-.907 2.017-1.837 2.985-2.802 2.158-2.15 4.239-4.409 5.882-6.985 1.202-1.884 2.097-3.931 2.925-6 .525-1.311 1.051-2.64 1.437-4l.532-2 .623-3c.19-.993.345-1.994.445-3 .167-1.662.163-3.332.17-5l-.003-3c-.012-1.334-.027-2.672-.17-4-.217-2.032-.699-4.024-1.204-6-.343-1.341-.691-2.69-1.141-4l-.713-2c-.398-1.012-.812-2.01-1.261-3-.469-1.032-1.022-2.026-1.6-3l-1.27-2-.681-1-1.474-1.999-.808-.997-1.767-1.964c-1.221-1.263-2.528-2.436-3.908-3.522-1.281-1.008-2.631-1.933-3.999-2.819-2.237-1.448-4.557-2.756-7-3.823-1.948-.851-3.965-1.544-6-2.155-1.646-.493-3.311-.936-5-1.26-1.655-.318-3.333-.494-5-.732-1.666-.238-3.319-.524-5-.639-1.663-.114-3.335-.087-5-.09h-95m43 68v-30h33l8 .001c1.664.008 3.345-.023 5 .184 1.718.215 3.396.641 5 1.298l1.995.934.987.578.963.654 1.776 1.565 1.422 1.829c.954 1.5 1.47 3.224 1.798 4.957l.273 2 .058 1-.061 2-.294 2-.236.999-.676 1.986-1.013 1.921-.645.906-1.561 1.63c-1.911 1.674-4.305 2.738-6.786 3.218-1.645.318-3.332.316-5 .336l-6 .004h-38m239-.471c-1.366.314-2.722.775-4 1.351-1.018.46-2.03.924-2.999 1.483-1.402.81-2.719 1.749-3.907 2.85l-1.754 1.83-.783.972-1.343 1.986-.565.999-.965 2c-.439.958-.801 1.981-1.071 3-.262.987-.419 1.984-.509 3-.088.999-.078 1.999-.1 3v2c.018 1.67.03 3.351.325 5 .312 1.743.879 3.417 1.671 5l1.133 1.999.667.997.732.989 1.653 1.921 1.855 1.754.975.782 1.986 1.333c1.261.753 2.617 1.345 3.999 1.837.979.348 1.984.649 3 .869 1.98.429 3.98.511 6 .511 2.01 0 4.03-.067 6-.521 2.87-.664 5.57-1.991 7.96-3.695 2.25-1.599 4.22-3.542 5.79-5.815.65-.942 1.22-1.929 1.71-2.962.46-.97.83-1.982 1.18-2.999l.6-2 .43-2 .15-1 .09-1 .05-1c.02-1.335.01-2.672-.14-4l-.34-2-.24-1-.63-2-.37-1-.91-2-1.18-2-.71-.999-.78-.997-1.75-1.961-.95-.938-.97-.891-1.99-1.562-2-1.21-2-.879c-1.31-.452-2.63-.837-4-1.095-1.98-.374-3.99-.478-6-.449-1.68.023-3.36.133-5 .51M762 370v-33h39l5 .001 3 .038 2 .135 2 .305c1.029.185 2.018.519 3 .865l.999.425.997.51 1.96 1.29 1.819 1.62.806.905.716.946 1.13 1.964c.421.97.823 1.956 1.04 2.996l.348 2c.094 1.001.156 1.994.156 3-.001 2.38-.22 4.83-1.289 6.996-1.75 3.546-5.086 6.051-8.682 7.521-1.604.656-3.282 1.083-5 1.298-.994.124-2 .149-3 .17l-3 .015h-43z"/>
<circle fill="#50bb9b" cx="1007" cy="317" r="25"/>
</svg>
